<svg width="44" height="37" viewBox="0 0 44 37" fill="none" xmlns="http://www.w3.org/2000/svg">
<path fill-rule="evenodd" clip-rule="evenodd" d="M40.9541 21.9028C43.9771 17.6765 44 15.4853 44 12.058C44 6.77852 39.1819 0.125 32.4064 0.125C28.0508 0.125 24.9947 1.77316 23.3673 2.95045C23.0873 3.15301 22.8496 3.34164 22.6548 3.50554C21.7538 4.14243 22.2389 4.13931 21.3612 3.51902C21.1651 3.35339 20.9244 3.16178 20.6398 2.95559C19.0142 1.77797 15.9556 0.125 11.5936 0.125C4.8181 0.125 0 6.77852 0 12.058C0 17.3374 2.51893 22.5449 7.04971 26.4155C11.5805 30.2861 14.6088 32.6008 17.875 34.598C18.3843 34.9095 18.8334 35.1885 19.229 35.4376C21.3701 36.786 23.3953 36.4096 24.7492 35.5215C25.2253 35.2093 25.7025 34.8903 26.125 34.598C27.7492 33.4747 29.6167 32.1665 29.6167 32.1665C29.6167 32.1665 37.931 26.1292 40.9541 21.9028Z" fill="#696969"/>
</svg>
