<svg width="113" height="37" viewBox="0 0 113 37" fill="none" xmlns="http://www.w3.org/2000/svg">
<path d="M5 12C2.25175 12 0 14.2517 0 17V32C0 34.7483 2.25175 37 5 37H20C22.7483 37 25 34.7483 25 32V17C25 14.2517 22.7483 12 20 12H5ZM5 12.7692H20C22.3287 12.7692 24.2308 14.6713 24.2308 17V32C24.2308 34.3287 22.3287 36.2308 20 36.2308H5C2.67133 36.2308 0.769231 34.3287 0.769231 32V17C0.769231 14.6713 2.67133 12.7692 5 12.7692ZM5.96154 13.9231C3.74126 13.9231 1.92308 15.7413 1.92308 17.9615V31.0385C1.92308 33.2587 3.74126 35.0769 5.96154 35.0769H19.0385C21.2587 35.0769 23.0769 33.2587 23.0769 31.0385V29.8846C23.0773 29.8591 23.0726 29.8338 23.0631 29.8102C23.0536 29.7865 23.0395 29.765 23.0216 29.7469C23.0037 29.7287 22.9824 29.7143 22.9588 29.7045C22.9353 29.6946 22.9101 29.6896 22.8846 29.6896C22.8591 29.6896 22.8339 29.6946 22.8104 29.7045C22.7869 29.7143 22.7656 29.7287 22.7477 29.7469C22.7298 29.765 22.7157 29.7865 22.7062 29.8102C22.6967 29.8338 22.6919 29.8591 22.6923 29.8846V31.0385C22.6923 33.049 21.049 34.6923 19.0385 34.6923H5.96154C3.95105 34.6923 2.30769 33.049 2.30769 31.0385V17.9615C2.30769 15.951 3.95105 14.3077 5.96154 14.3077H19.0385C19.0639 14.3081 19.0892 14.3033 19.1129 14.2938C19.1365 14.2843 19.1581 14.2702 19.1762 14.2523C19.1944 14.2344 19.2088 14.2131 19.2186 14.1896C19.2284 14.1661 19.2335 14.1409 19.2335 14.1154C19.2335 14.0899 19.2284 14.0647 19.2186 14.0412C19.2088 14.0176 19.1944 13.9963 19.1762 13.9784C19.1581 13.9605 19.1365 13.9464 19.1129 13.9369C19.0892 13.9274 19.0639 13.9227 19.0385 13.9231H5.96154ZM22.8816 25.4585C22.8564 25.4589 22.8314 25.4643 22.8082 25.4743C22.7851 25.4843 22.7641 25.4988 22.7465 25.517C22.7289 25.5351 22.7151 25.5565 22.7058 25.58C22.6965 25.6035 22.6919 25.6286 22.6923 25.6538V26.4231C22.6919 26.4486 22.6967 26.4739 22.7062 26.4975C22.7157 26.5212 22.7298 26.5427 22.7477 26.5608C22.7656 26.579 22.7869 26.5934 22.8104 26.6032C22.8339 26.6131 22.8591 26.6181 22.8846 26.6181C22.9101 26.6181 22.9353 26.6131 22.9588 26.6032C22.9824 26.5934 23.0037 26.579 23.0216 26.5608C23.0395 26.5427 23.0536 26.5212 23.0631 26.4975C23.0726 26.4739 23.0773 26.4486 23.0769 26.4231V25.6538C23.0773 25.6281 23.0725 25.6025 23.0629 25.5786C23.0532 25.5548 23.0388 25.5331 23.0206 25.5148C23.0024 25.4966 22.9807 25.4823 22.9568 25.4726C22.9329 25.4629 22.9074 25.4581 22.8816 25.4585ZM22.8816 27.3816C22.8564 27.382 22.8314 27.3874 22.8082 27.3974C22.7851 27.4074 22.7641 27.4219 22.7465 27.4401C22.7289 27.4582 22.7151 27.4796 22.7058 27.5031C22.6965 27.5266 22.6919 27.5517 22.6923 27.5769V28.7308C22.6919 28.7563 22.6967 28.7816 22.7062 28.8052C22.7157 28.8288 22.7298 28.8504 22.7477 28.8685C22.7656 28.8867 22.7869 28.9011 22.8104 28.9109C22.8339 28.9207 22.8591 28.9258 22.8846 28.9258C22.9101 28.9258 22.9353 28.9207 22.9588 28.9109C22.9824 28.9011 23.0037 28.8867 23.0216 28.8685C23.0395 28.8504 23.0536 28.8288 23.0631 28.8052C23.0726 28.7816 23.0773 28.7563 23.0769 28.7308V27.5769C23.0773 27.5512 23.0725 27.5256 23.0629 27.5017C23.0532 27.4778 23.0388 27.4561 23.0206 27.4379C23.0024 27.4197 22.9807 27.4053 22.9568 27.3957C22.9329 27.386 22.9074 27.3812 22.8816 27.3816Z" fill="#B1DD40"/>
<path d="M31.3498 2.002C30.8278 2.0236 30.3488 2.34756 30.0724 2.8659L15.2835 29.3878L5.70272 19.6833C5.29124 19.1829 4.67401 18.9958 4.10592 19.2045C3.5409 19.4097 3.1202 19.9713 3.02194 20.6552C2.92367 21.3427 3.16012 22.0338 3.63916 22.4478L14.5957 33.5634C14.9396 33.9053 15.3941 34.0565 15.8394 33.9809C16.2877 33.9017 16.6838 33.603 16.9295 33.1602L32.7256 4.88169C33.0633 4.30215 33.091 3.55343 32.7993 2.9415C32.5075 2.33316 31.9456 1.9696 31.3498 2.002Z" fill="#B1DD40"/>
<path d="M48.0215 26.4199C48.0215 27.8262 47.7695 29.1387 47.2656 30.3574C46.7617 31.5645 46.0762 32.6133 45.209 33.5039C44.3418 34.3828 43.3223 35.0801 42.1504 35.5957C40.9902 36.0996 39.7422 36.3516 38.4062 36.3516C37.082 36.3516 35.834 36.0996 34.6621 35.5957C33.502 35.0801 32.4824 34.3828 31.6035 33.5039C30.7363 32.6133 30.0508 31.5645 29.5469 30.3574C29.043 29.1387 28.791 27.8262 28.791 26.4199C28.791 24.9902 29.043 23.666 29.5469 22.4473C30.0508 21.2285 30.7363 20.1797 31.6035 19.3008C32.4824 18.4102 33.502 17.7129 34.6621 17.209C35.834 16.7051 37.082 16.4531 38.4062 16.4531C39.7422 16.4531 40.9902 16.6934 42.1504 17.1738C43.3223 17.6426 44.3418 18.3164 45.209 19.1953C46.0762 20.0625 46.7617 21.1113 47.2656 22.3418C47.7695 23.5605 48.0215 24.9199 48.0215 26.4199ZM43.1875 26.4199C43.1875 25.6465 43.0586 24.9492 42.8008 24.3281C42.5547 23.6953 42.2148 23.1562 41.7812 22.7109C41.3477 22.2539 40.8379 21.9082 40.252 21.6738C39.6777 21.4277 39.0625 21.3047 38.4062 21.3047C37.75 21.3047 37.1289 21.4277 36.543 21.6738C35.9688 21.9082 35.4648 22.2539 35.0312 22.7109C34.6094 23.1562 34.2754 23.6953 34.0293 24.3281C33.7832 24.9492 33.6602 25.6465 33.6602 26.4199C33.6602 27.1465 33.7832 27.8203 34.0293 28.4414C34.2754 29.0625 34.6094 29.6016 35.0312 30.0586C35.4648 30.5156 35.9688 30.8789 36.543 31.1484C37.1289 31.4062 37.75 31.5352 38.4062 31.5352C39.0625 31.5352 39.6777 31.4121 40.252 31.166C40.8379 30.9199 41.3477 30.5742 41.7812 30.1289C42.2148 29.6836 42.5547 29.1445 42.8008 28.5117C43.0586 27.8789 43.1875 27.1816 43.1875 26.4199ZM59.9746 36C58.8145 36 57.7246 35.7832 56.7051 35.3496C55.6855 34.9043 54.7891 34.3008 54.0156 33.5391C53.2539 32.7656 52.6504 31.8691 52.2051 30.8496C51.7715 29.8301 51.5547 28.7402 51.5547 27.5801V21.9902H49.2168V17.209H51.5547V9.68555H56.3359V17.209H63.6133V21.9902H56.3359V27.5801C56.3359 28.084 56.4297 28.5586 56.6172 29.0039C56.8047 29.4375 57.0625 29.8184 57.3906 30.1465C57.7188 30.4746 58.1055 30.7383 58.5508 30.9375C58.9961 31.125 59.4707 31.2188 59.9746 31.2188H63.6133V36H59.9746ZM71.9805 12.0586C71.9805 12.5039 71.8926 12.9199 71.7168 13.3066C71.5527 13.6934 71.3242 14.0332 71.0312 14.3262C70.7383 14.6074 70.3926 14.8359 69.9941 15.0117C69.6074 15.1758 69.1914 15.2578 68.7461 15.2578C68.3008 15.2578 67.8789 15.1758 67.4805 15.0117C67.0938 14.8359 66.7539 14.6074 66.4609 14.3262C66.1797 14.0332 65.9512 13.6934 65.7754 13.3066C65.6113 12.9199 65.5293 12.5039 65.5293 12.0586C65.5293 11.625 65.6113 11.2148 65.7754 10.8281C65.9512 10.4297 66.1797 10.0898 66.4609 9.80859C66.7539 9.51562 67.0938 9.28711 67.4805 9.12305C67.8789 8.94727 68.3008 8.85938 68.7461 8.85938C69.1914 8.85938 69.6074 8.94727 69.9941 9.12305C70.3926 9.28711 70.7383 9.51562 71.0312 9.80859C71.3242 10.0898 71.5527 10.4297 71.7168 10.8281C71.8926 11.2148 71.9805 11.625 71.9805 12.0586ZM71.1543 36H66.3203V17.1738H71.1543V36ZM91.2812 20.918L87.7656 24.4512C87.5898 23.959 87.3496 23.5195 87.0449 23.1328C86.7402 22.7344 86.3945 22.4004 86.0078 22.1309C85.6328 21.8613 85.2227 21.6562 84.7773 21.5156C84.332 21.375 83.875 21.3047 83.4062 21.3047C82.75 21.3047 82.1289 21.4395 81.543 21.709C80.9688 21.9785 80.4648 22.3594 80.0312 22.8516C79.6094 23.332 79.2754 23.9062 79.0293 24.5742C78.7832 25.2422 78.6602 25.9805 78.6602 26.7891C78.6602 27.4453 78.7832 28.0605 79.0293 28.6348C79.2754 29.209 79.6094 29.7129 80.0312 30.1465C80.4648 30.5801 80.9688 30.9199 81.543 31.166C82.1289 31.4121 82.75 31.5352 83.4062 31.5352C83.875 31.5352 84.3262 31.4707 84.7598 31.3418C85.1934 31.2129 85.5977 31.0312 85.9727 30.7969C86.3594 30.5508 86.6992 30.2578 86.9922 29.918C87.2969 29.5664 87.543 29.1797 87.7305 28.7578L91.2461 32.291C90.8008 32.9238 90.2852 33.4922 89.6992 33.9961C89.125 34.5 88.498 34.9277 87.8184 35.2793C87.1504 35.6309 86.4414 35.8945 85.6914 36.0703C84.9531 36.2578 84.1914 36.3516 83.4062 36.3516C82.082 36.3516 80.834 36.1055 79.6621 35.6133C78.502 35.1094 77.4824 34.4238 76.6035 33.5566C75.7363 32.6895 75.0508 31.6758 74.5469 30.5156C74.043 29.3555 73.791 28.1133 73.791 26.7891C73.791 25.3477 74.043 24 74.5469 22.7461C75.0508 21.4922 75.7363 20.4023 76.6035 19.4766C77.4824 18.5391 78.502 17.8008 79.6621 17.2617C80.834 16.7227 82.082 16.4531 83.4062 16.4531C84.1914 16.4531 84.959 16.5527 85.709 16.752C86.4707 16.9512 87.1914 17.2441 87.8711 17.6309C88.5625 18.0059 89.1953 18.4688 89.7695 19.0195C90.3555 19.5703 90.8594 20.2031 91.2812 20.918ZM111.549 26.4199C111.549 27.8262 111.297 29.1387 110.793 30.3574C110.289 31.5645 109.604 32.6133 108.736 33.5039C107.869 34.3828 106.85 35.0801 105.678 35.5957C104.518 36.0996 103.27 36.3516 101.934 36.3516C100.609 36.3516 99.3613 36.0996 98.1895 35.5957C97.0293 35.0801 96.0098 34.3828 95.1309 33.5039C94.2637 32.6133 93.5781 31.5645 93.0742 30.3574C92.5703 29.1387 92.3184 27.8262 92.3184 26.4199C92.3184 24.9902 92.5703 23.666 93.0742 22.4473C93.5781 21.2285 94.2637 20.1797 95.1309 19.3008C96.0098 18.4102 97.0293 17.7129 98.1895 17.209C99.3613 16.7051 100.609 16.4531 101.934 16.4531C103.27 16.4531 104.518 16.6934 105.678 17.1738C106.85 17.6426 107.869 18.3164 108.736 19.1953C109.604 20.0625 110.289 21.1113 110.793 22.3418C111.297 23.5605 111.549 24.9199 111.549 26.4199ZM106.715 26.4199C106.715 25.6465 106.586 24.9492 106.328 24.3281C106.082 23.6953 105.742 23.1562 105.309 22.7109C104.875 22.2539 104.365 21.9082 103.779 21.6738C103.205 21.4277 102.59 21.3047 101.934 21.3047C101.277 21.3047 100.656 21.4277 100.07 21.6738C99.4961 21.9082 98.9922 22.2539 98.5586 22.7109C98.1367 23.1562 97.8027 23.6953 97.5566 24.3281C97.3105 24.9492 97.1875 25.6465 97.1875 26.4199C97.1875 27.1465 97.3105 27.8203 97.5566 28.4414C97.8027 29.0625 98.1367 29.6016 98.5586 30.0586C98.9922 30.5156 99.4961 30.8789 100.07 31.1484C100.656 31.4062 101.277 31.5352 101.934 31.5352C102.59 31.5352 103.205 31.4121 103.779 31.166C104.365 30.9199 104.875 30.5742 105.309 30.1289C105.742 29.6836 106.082 29.1445 106.328 28.5117C106.586 27.8789 106.715 27.1816 106.715 26.4199Z" fill="#B1DD40"/>
</svg>
