<svg width="16" height="20" viewBox="0 0 16 20" fill="none" xmlns="http://www.w3.org/2000/svg">
<path d="M12.6616 13.6145H2.23699V18.8636C2.23699 19.3532 1.82957 19.75 1.32699 19.75C0.824412 19.75 0.416992 19.3532 0.416992 18.8636V1.13636C0.416992 0.646836 0.824412 0.25 1.32699 0.25H12.6616C13.8543 0.25 14.7718 0.964198 15.2304 1.85558C15.6882 2.74529 15.7368 3.88654 15.1637 4.88689L14.6191 5.83736C14.2371 6.50421 14.2371 7.3603 14.6191 8.02714L15.1637 8.97766C15.7368 9.97801 15.6882 11.1192 15.2304 12.0089C14.7718 12.9003 13.8543 13.6145 12.6616 13.6145Z" fill="#677D2F"/>
</svg>

